<?xml version="1.0" encoding="UTF-8" standalone="no"?>
<svg version="1.1" xmlns="http://www.w3.org/2000/svg" width="512" height="512" viewBox="0 0 1248 1248">
  <!-- Fundo arredondado (squircle) em preto -->
  <g transform="translate(0,1248) scale(0.1,-0.1)" fill="#000000">
    <path d="M4375 10319 c-286 -11 -440 -29 -594 -69 -41 -10 -78 -17 -83 -14 -4
3 -8 1 -8 -5 0 -5 -14 -12 -30 -16 -87 -19 -302 -121 -413 -197 -31 -21 -62
-36 -69 -32 -6 4 -8 3 -5 -4 4 -5 -21 -33 -55 -60 -35 -28 -90 -78 -122 -111
-33 -33 -63 -58 -68 -55 -5 3 -7 2 -6 -3 4 -11 -112 -153 -125 -153 -6 0 -8
-3 -4 -6 3 -3 -14 -37 -38 -75 -52 -80 -127 -227 -145 -284 -7 -22 -20 -56
-28 -75 -9 -19 -16 -39 -17 -45 -4 -46 -18 -94 -26 -90 -5 4 -6 -1 -3 -9 3 -8
-1 -50 -10 -93 -25 -126 -36 -252 -46 -523 -12 -329 -12 -3623 0 -3970 14
-373 38 -547 106 -752 14 -43 22 -83 18 -89 -4 -7 -3 -9 3 -6 5 3 28 -34 50
-82 37 -81 152 -272 179 -296 6 -5 33 -37 60 -69 27 -33 71 -80 98 -105 28
-25 67 -63 89 -83 22 -21 41 -38 43 -38 2 0 35 -22 74 -50 211 -150 447 -246
730 -294 235 -40 271 -41 2345 -41 l2000 0 160 22 c470 65 768 206 1076 508
47 47 89 82 94 77 5 -4 5 -1 1 5 -4 8 15 41 48 84 31 39 65 88 77 109 12 22
26 37 31 34 5 -3 7 -2 6 3 -4 13 23 73 33 73 5 0 8 3 7 8 -4 15 14 52 23 47 5
-3 7 0 4 7 -5 15 49 141 57 132 3 -3 6 5 5 18 0 13 14 77 31 143 80 304 85
480 79 2830 -4 1874 -6 1999 -38 2212 -6 40 -12 83 -13 95 -2 13 -6 30 -9 38
-2 8 -15 56 -27 105 -12 50 -40 134 -62 187 -22 54 -36 103 -32 109 5 8 3 9
-6 4 -10 -6 -12 -4 -7 9 4 9 3 15 -2 12 -4 -3 -18 14 -31 37 -13 23 -41 69
-63 101 -22 32 -33 55 -26 50 8 -4 -2 8 -21 27 -69 70 -170 188 -170 199 0 6
-4 9 -9 6 -4 -3 -19 6 -32 21 -13 14 -51 48 -84 76 -33 28 -59 53 -58 57 1 4
-4 7 -10 7 -18 0 -127 74 -122 83 3 4 -1 7 -8 6 -6 0 -64 25 -127 56 -261 128
-504 179 -945 198 -278 11 -3439 11 -3730 -1z"/>
  </g>
  <!-- Letras "Loty" em branco -->
  <g transform="translate(0,1248) scale(0.1,-0.1)" fill="#FFFFFF">
    <!-- L -->
    <path d="M4646 8010 c15 -6 40 -24 56 -40 42 -45 38 -92 -28 -299 -31 -97 -74 -232 -96 -301 -21 -69 -50 -159 -64 -200 -14 -41 -27 -86 -30 -100 -3 -14 -23 -83 -44 -155 -61 -207 -174 -626 -196 -725 -3 -14 -23 -104 -45 -200 -22 -96 -44 -193 -49 -215 -5 -21 -7 -41 -5 -43 2 -2 84 19 182 47 330 94 696 182 730 176 18 -3 46 -19 63 -36 25 -26 30 -38 30 -80 0 -75 -38 -131 -97 -143 -10 -1 -25 -6 -33 -9 -8 -3 -134 -38 -280 -77 -146 -40 -366 -106 -488 -146 -143 -47 -240 -74 -268 -74 -92 0 -154 50 -154 124 0 40 29 211 50 291 5 22 46 187 89 366 120 492 282 1069 302 1077 5 2 7 7 5 11 -10 15 181 604 193 597 4 -3 7 5 6 17 -2 28 22 87 44 107 39 36 83 46 127 30z"/>
    <!-- t -->
    <path d="M7202 7533 c45 -40 60 -103 36 -146 -7 -12 -13 -28 -14 -35 -1 -8 -21 -65 -44 -128 -24 -63 -40 -117 -38 -120 3 -2 88 9 191 26 195 32 267 37 267 19 0 -5 4 -8 9 -5 9 6 43 -28 60 -61 18 -35 11 -110 -9 -98 -4 3 -7 -3 -6 -13 0 -9 -5 -16 -12 -14 -8 1 -11 -2 -8 -6 3 -5 -3 -17 -14 -27 -18 -17 -135 -40 -460 -92 -58 -9 -110 -21 -117 -27 -6 -6 -23 -51 -38 -101 -14 -49 -29 -97 -32 -105 -4 -8 -6 -18 -5 -21 1 -3 -6 -30 -14 -60 -37 -136 -74 -375 -74 -476 0 -74 18 -147 42 -173 18 -19 28 -21 64 -16 37 5 55 17 129 88 95 91 125 109 170 102 38 -6 80 -37 79 -58 -1 -9 2 -14 6 -11 10 6 20 -19 20 -51 0 -33 -35 -101 -60 -116 -11 -7 -20 -18 -20 -24 0 -16 -99 -101 -164 -142 -61 -38 -140 -62 -208 -62 -48 0 -158 35 -158 50 0 4 -9 10 -19 13 -31 8 -89 96 -114 172 -19 61 -22 91 -22 230 0 88 6 189 12 225 7 36 15 83 18 105 4 22 25 116 47 208 22 93 38 171 35 174 -3 3 -35 0 -70 -6 -84 -15 -130 -14 -121 1 4 7 3 8 -4 4 -16 -10 -54 12 -46 26 4 7 3 8 -5 4 -7 -5 -17 6 -27 30 -31 74 9 150 94 178 39 13 237 47 280 49 6 0 12 8 12 18 0 17 29 105 50 154 5 11 20 52 33 90 41 116 85 202 119 230 27 23 38 26 80 21 28 -2 58 -12 70 -23z"/>
    <!-- o (corpo externo) -->
    <path d="M6120 7060 c52 -26 101 -70 94 -82 -3 -5 0 -7 7 -6 20 5 77 -88 101 -165 18 -60 22 -96 22 -207 0 -141 -7 -191 -50 -325 -49 -153 -111 -263 -222 -397 -55 -66 -172 -170 -172 -153 0 3 -9 -4 -20 -15 -12 -12 -25 -18 -30 -15 -6 4 -10 2 -10 -2 0 -16 -88 -52 -156 -64 -178 -31 -328 39 -407 188 -19 37 -41 96 -48 131 -18 95 -6 266 26 377 34 116 120 299 136 289 7 -4 9 -3 6 4 -10 16 4 44 19 38 8 -3 11 0 8 9 -9 22 121 189 139 178 6 -3 7 -2 4 4 -13 21 164 169 187 156 6 -3 8 -3 4 2 -10 11 39 40 110 65 77 28 188 23 252 -10z"/>
    <!-- y -->
    <path d="M8660 7035 c36 -19 60 -62 60 -108 0 -18 -24 -98 -54 -178 -67 -181 -175 -502 -262 -774 -37 -115 -70 -215 -75 -221 -5 -6 -6 -13 -3 -16 3 -3 -6 -39 -19 -79 -13 -41 -45 -150 -71 -244 -26 -93 -53 -190 -61 -215 -7 -25 -19 -71 -26 -102 -7 -32 -16 -58 -20 -58 -5 0 -6 -6 -3 -13 3 -8 -6 -61 -20 -118 -13 -57 -27 -120 -31 -139 -13 -68 -46 -158 -65 -175 -29 -27 -99 -30 -136 -7 -35 22 -64 76 -64 120 0 97 124 647 143 635 6 -3 7 -1 3 5 -10 17 61 276 160 581 31 96 37 142 12 98 -8 -15 -12 -16 -26 -6 -14 11 -15 11 -5 0 15 -18 -6 -52 -88 -144 -132 -148 -242 -175 -333 -83 -57 57 -78 128 -84 279 -6 168 16 364 75 647 30 148 36 166 68 197 68 69 188 38 212 -54 3 -14 -8 -93 -26 -176 -47 -232 -62 -340 -68 -487 -5 -119 -4 -133 9 -123 8 7 19 9 23 5 5 -4 5 -2 2 4 -7 13 40 80 54 77 5 -2 8 1 6 6 -4 17 105 172 119 167 8 -3 11 0 8 9 -8 19 63 128 78 119 7 -4 8 -3 4 5 -7 11 60 119 251 406 40 61 79 117 86 125 39 50 110 64 167 35z"/>
  </g>
  <!-- O centro do "o" deve ser preto para criar o efeito vazado -->
  <g transform="translate(0,1248) scale(0.1,-0.1)" fill="#000000">
    <path d="M5887 6776 c-30 -19 -59 -31 -63 -27 -4 3 -4 1 -1 -5 3 -6 -19 -35 -49 -65 -173 -170 -292 -433 -282 -625 4 -70 8 -88 31 -117 14 -19 24 -36 22 -39 -2 -2 6 -5 18 -6 63 -5 103 0 142 17 24 11 46 17 49 15 3 -2 4 -1 2 2 -3 4 17 24 44 45 26 21 51 43 55 49 3 6 11 8 16 4 5 -3 8 -2 7 3 -1 4 21 43 50 86 30 43 66 105 81 137 16 33 32 56 36 52 5 -4 6 -2 2 4 -3 5 3 44 15 85 26 96 28 263 4 329 -36 97 -85 113 -179 56z"/>
  </g>
</svg>
